<?xml version="1.0" encoding="utf-8"?>
<!-- Generator: Adobe Illustrator 21.1.0, SVG Export Plug-In . SVG Version: 6.00 Build 0)  -->
<svg version="1.1" id="Layer_1" xmlns="http://www.w3.org/2000/svg" xmlns:xlink="http://www.w3.org/1999/xlink" x="0px" y="0px"
	 viewBox="0 0 512 512" style="enable-background:new 0 0 512 512;" xml:space="preserve">
<style type="text/css">
	.st0{fill:#0C2F6F;}
	.st1{fill:#FFCC31;}
	.st2{clip-path:url(#SVGID_2_);}
	.st3{clip-path:url(#SVGID_4_);fill:#FFCC31;}
	.st4{clip-path:url(#SVGID_6_);}
	.st5{clip-path:url(#SVGID_8_);fill:#FFCC31;}
	.st6{clip-path:url(#SVGID_10_);}
	.st7{clip-path:url(#SVGID_12_);fill:#FFCC31;}
	.st8{clip-path:url(#SVGID_14_);}
	.st9{clip-path:url(#SVGID_16_);fill:#FFCC31;}
	.st10{clip-path:url(#SVGID_18_);}
	.st11{clip-path:url(#SVGID_20_);fill:#FFCC31;}
	.st12{clip-path:url(#SVGID_22_);}
	.st13{clip-path:url(#SVGID_24_);fill:#FFCC31;}
	.st14{clip-path:url(#SVGID_26_);}
	.st15{clip-path:url(#SVGID_28_);fill:#FFFFFF;}
	.st16{clip-path:url(#SVGID_30_);}
	.st17{clip-path:url(#SVGID_32_);fill:#00BCF2;}
	.st18{fill:#002050;}
	.st19{clip-path:url(#SVGID_34_);}
	.st20{clip-path:url(#SVGID_36_);fill:#FFFFFF;}
	.st21{clip-path:url(#SVGID_38_);}
	.st22{clip-path:url(#SVGID_40_);fill:#00BCF2;}
	.st23{clip-path:url(#SVGID_42_);}
	.st24{clip-path:url(#SVGID_44_);}
	.st25{clip-path:url(#SVGID_46_);}
	.st26{clip-path:url(#SVGID_48_);}
	.st27{clip-path:url(#SVGID_50_);}
	.st28{clip-path:url(#SVGID_52_);}
	.st29{clip-path:url(#SVGID_54_);}
	.st30{clip-path:url(#SVGID_56_);}
	.st31{fill:#FFFFFF;}
	.st32{clip-path:url(#SVGID_58_);}
	.st33{clip-path:url(#SVGID_60_);fill:#FFFFFF;}
	.st34{clip-path:url(#SVGID_62_);}
	.st35{clip-path:url(#SVGID_64_);fill:#00BCF2;}
	.st36{clip-path:url(#SVGID_66_);}
	.st37{clip-path:url(#SVGID_68_);fill:#FFFFFF;}
	.st38{clip-path:url(#SVGID_70_);}
	.st39{clip-path:url(#SVGID_72_);fill:#00BCF2;}
	.st40{clip-path:url(#SVGID_74_);}
	.st41{clip-path:url(#SVGID_76_);fill:#FFFFFF;}
	.st42{clip-path:url(#SVGID_78_);}
	.st43{clip-path:url(#SVGID_80_);fill:#00BCF2;}
	.st44{fill:#0078D7;}
	.st45{clip-path:url(#SVGID_82_);}
	.st46{clip-path:url(#SVGID_84_);fill:#FFFFFF;}
	.st47{clip-path:url(#SVGID_86_);}
	.st48{clip-path:url(#SVGID_88_);fill:#00BCF2;}
	.st49{clip-path:url(#SVGID_90_);}
	.st50{clip-path:url(#SVGID_92_);fill:#FFFFFF;}
	.st51{clip-path:url(#SVGID_94_);}
	.st52{clip-path:url(#SVGID_96_);fill:#00BCF2;}
	.st53{clip-path:url(#SVGID_98_);}
	.st54{clip-path:url(#SVGID_100_);fill:#FFFFFF;}
	.st55{clip-path:url(#SVGID_102_);}
	.st56{clip-path:url(#SVGID_104_);fill:#00BCF2;}
	.st57{clip-path:url(#SVGID_106_);}
	.st58{clip-path:url(#SVGID_108_);fill:#FFFFFF;}
	.st59{clip-path:url(#SVGID_110_);}
	.st60{clip-path:url(#SVGID_112_);fill:#00BCF2;}
	.st61{clip-path:url(#SVGID_114_);}
	.st62{clip-path:url(#SVGID_116_);fill:#FFFFFF;}
	.st63{clip-path:url(#SVGID_118_);}
	.st64{clip-path:url(#SVGID_120_);fill:#FFFFFF;}
	.st65{clip-path:url(#SVGID_122_);}
	.st66{clip-path:url(#SVGID_124_);fill:#00BCF2;}
	.st67{clip-path:url(#SVGID_126_);}
	.st68{clip-path:url(#SVGID_128_);fill:#FFFFFF;}
	.st69{clip-path:url(#SVGID_130_);}
	.st70{clip-path:url(#SVGID_132_);fill:#00BCF2;}
	.st71{clip-path:url(#SVGID_134_);}
	.st72{clip-path:url(#SVGID_136_);fill:#FFFFFF;}
	.st73{clip-path:url(#SVGID_138_);}
	.st74{clip-path:url(#SVGID_140_);fill:#00BCF2;}
	.st75{fill:#00BCF2;}
	.st76{clip-path:url(#SVGID_142_);}
	.st77{clip-path:url(#SVGID_144_);fill:#FFFFFF;}
	.st78{clip-path:url(#SVGID_146_);}
	.st79{clip-path:url(#SVGID_148_);fill:#00BCF2;}
	.st80{clip-path:url(#SVGID_150_);}
	.st81{clip-path:url(#SVGID_152_);}
	.st82{clip-path:url(#SVGID_154_);}
	.st83{clip-path:url(#SVGID_156_);}
	.st84{clip-path:url(#SVGID_158_);}
	.st85{clip-path:url(#SVGID_162_);}
	.st86{clip-path:url(#SVGID_164_);fill:#FFFFFF;}
	.st87{clip-path:url(#SVGID_166_);}
</style>
<g>
	<path class="st1" d="M480,512H32c-17.7,0-32-14.3-32-32V32C0,14.3,14.3,0,32,0h448c17.7,0,32,14.3,32,32v448
		C512,497.7,497.7,512,480,512z"/>
	<g>
		<path d="M304.1,201.2c0,1.4,0.2,2.5,0.5,3.4s0.8,1.9,1.4,3L412.8,394c1.8,2.9,3.1,5.8,3.9,8.7s1.3,6.1,1.3,9.5
			c0,5-0.9,9.7-2.8,14.1c-1.9,4.4-4.5,8.2-7.8,11.5c-3.3,3.3-7.2,5.8-11.5,7.7c-4.4,1.9-9,2.8-13.9,2.8H130.2c-5,0-9.7-0.9-14.1-2.8
			c-4.4-1.9-8.2-4.4-11.5-7.7c-3.3-3.3-5.9-7.1-7.8-11.5c-1.9-4.4-2.8-9.1-2.8-14.1c0-3.4,0.4-6.6,1.3-9.7s2.2-6,3.9-8.9L206,207.7
			c1.3-2,1.9-4.2,1.9-6.6V87.7h-24v-24H232v137.5c0,6.5-1.8,12.8-5.3,18.8l-31,53.9c5.6,1.8,11.3,3.2,17,4.4
			c5.7,1.2,11.5,1.8,17.4,1.8c3,0,5.7-0.6,8-1.8c2.3-1.2,4.6-2.7,6.8-4.4s4.4-3.7,6.8-5.8c2.3-2.1,4.9-4.1,7.7-5.8
			c2.8-1.8,6-3.2,9.7-4.4c3.6-1.2,7.9-1.8,13-1.8c4.4,0,8.7,0.3,13,0.8s8.5,1.3,12.8,2.3l-22.5-39.2c-1.6-2.9-2.9-5.9-3.8-9
			c-0.9-3.1-1.3-6.3-1.3-9.6V63.7h48.1v24h-24V201.2z"/>
	</g>
</g>
<g>
	<g>
		<defs>
			<path id="SVGID_161_" d="M219.1,322.1c-4.2-5.6-12.3-6.5-17.6-1.7c-4.6,4.2-4.9,11.3-1.2,16.3l23.9,32l-24.1,32.2
				c-3.7,5-3.4,12.1,1.2,16.3c5.3,4.8,13.4,3.9,17.6-1.7l33.6-44.9c0.8-1.1,0.8-2.6,0-3.7L219.1,322.1z"/>
		</defs>
		<clipPath id="SVGID_2_">
			<use xlink:href="#SVGID_161_"  style="overflow:visible;"/>
		</clipPath>
		<g class="st2">
			<defs>
				<rect id="SVGID_163_" x="-99.5" y="192.2" width="10653.2" height="5992.4"/>
			</defs>
			<clipPath id="SVGID_4_">
				<use xlink:href="#SVGID_163_"  style="overflow:visible;"/>
			</clipPath>
			<rect x="169.9" y="289.6" style="clip-path:url(#SVGID_4_);fill:#FFFFFF;" width="111" height="158.4"/>
		</g>
	</g>
</g>
<g>
	<defs>
		<path id="SVGID_165_" d="M292.9,322.1c4.2-5.6,12.3-6.5,17.6-1.7c4.6,4.2,4.9,11.3,1.2,16.3l-23.9,32l24.1,32.2
			c3.7,5,3.4,12.1-1.2,16.3c-5.3,4.8-13.4,3.9-17.6-1.7l-33.6-44.9c-0.8-1.1-0.8-2.6,0-3.7L292.9,322.1z"/>
	</defs>
	<use xlink:href="#SVGID_165_"  style="overflow:visible;fill-rule:evenodd;clip-rule:evenodd;fill:#00BCF2;"/>
	<clipPath id="SVGID_6_">
		<use xlink:href="#SVGID_165_"  style="overflow:visible;"/>
	</clipPath>
	<g class="st4">
		<defs>
			<rect id="SVGID_167_" x="-99.5" y="192.2" width="10653.2" height="5992.4"/>
		</defs>
		<use xlink:href="#SVGID_167_"  style="overflow:visible;fill:#00BCF2;"/>
		<clipPath id="SVGID_8_">
			<use xlink:href="#SVGID_167_"  style="overflow:visible;"/>
		</clipPath>
	</g>
</g>
</svg>
