<svg xmlns="http://www.w3.org/2000/svg" width="24" height="24" viewBox="0 0 24 24"><path d="M10.644 17.08c2.866-.662 4.539-1.241 3.246-3.682-3.932-7.427-1.042-11.398 3.111-11.398 4.235 0 7.054 4.124 3.11 11.398-1.332 2.455.437 3.034 3.242 3.682 2.483.574 2.647 1.787 2.647 3.889v1.031h-18c0-2.745-.22-4.258 2.644-4.92zm-12.644 4.92h7.809c-.035-8.177 3.436-5.313 3.436-11.127 0-2.511-1.639-3.873-3.748-3.873-3.115 0-5.282 2.979-2.333 8.549.969 1.83-1.031 2.265-3.181 2.761-1.862.43-1.983 1.34-1.983 2.917v.773z"/></svg>