<svg xmlns="http://www.w3.org/2000/svg" width="24" height="24" viewBox="0 0 24 24"><path d="M12 12.805c0 .191-.157.346-.352.346h-.796c-.186 0-.383.11-.426.378-.034.215.09.387.255.461l.807.359c.177.079.255.283.176.458-.081.174-.289.251-.465.172l-.854-.38c-.111-.05-.233-.023-.32.121-.356.588-1.047 1.171-2.025 1.28-.997-.111-1.696-.715-2.045-1.314-.071-.122-.198-.131-.3-.086l-.854.38c-.177.079-.384.001-.465-.172-.079-.174-.001-.379.176-.458l.807-.359c.175-.078.288-.245.251-.487-.036-.228-.231-.352-.422-.352h-.796c-.195-.001-.352-.156-.352-.347 0-.191.157-.346.352-.346h.801c.184 0 .376-.118.411-.37.027-.193-.092-.361-.258-.425l-.743-.289c-.181-.07-.27-.271-.198-.448s.275-.265.456-.195l.765.297c.099.038.238.025.313-.146l.2-.382c.57.333 1.197.499 1.901.499.693 0 1.329-.17 1.899-.5.075.124.146.255.207.396.064.146.199.177.309.134l.765-.297c.181-.07.385.017.456.195s-.018.378-.198.448l-.743.289c-.16.062-.286.218-.256.444.03.219.218.351.409.351h.801c.194-.001.351.154.351.345zm-5.27-3.878c.107.024.2.09.257.183.206.343-.062.637-.312.943.402.188.836.28 1.325.28.481 0 .919-.095 1.323-.282-.246-.302-.514-.602-.31-.941.056-.093.149-.159.257-.183.212-.046.372-.233.372-.458 0-.259-.213-.469-.477-.469-.314 0-.542.295-.46.592.03.112.014.231-.046.332-.135.223-.365.357-.659.359-.298-.002-.525-.138-.659-.359-.06-.1-.076-.219-.046-.332.082-.298-.146-.592-.46-.592-.264 0-.477.21-.477.469 0 .225.161.412.372.458zm4.208 11.073h-10.938v-20h21v11.462c-.594-.472-1.269-.843-2-1.094v-4.368h-17v12h8.212c.136.713.384 1.386.726 2zm13.062 2.586l-2.831-2.832c.522-.79.831-1.735.831-2.754 0-2.761-2.238-5-5-5s-5 2.239-5 5 2.238 5 5 5c1.019 0 1.964-.309 2.755-.832l2.831 2.832 1.414-1.414zm-10-5.586c0-1.654 1.346-3 3-3s3 1.346 3 3-1.346 3-3 3-3-1.346-3-3z"/></svg>