<svg xmlns="http://www.w3.org/2000/svg" width="3840" height="2160"><path d="M2008,1144L1809,927L1786,1214Z" fill="#2e2f29" stroke="#2e2f29" stroke-width="1.51"/><path d="M2008,1144L2125,906L1809,927Z" fill="#2f2f29" stroke="#2f2f29" stroke-width="1.51"/><path d="M1809,927L1552,1162L1786,1214Z" fill="#2e2f29" stroke="#2e2f29" stroke-width="1.51"/><path d="M1809,927L1524,999L1552,1162Z" fill="#2d2e28" stroke="#2d2e28" stroke-width="1.51"/><path d="M2125,906L1852,721L1809,927Z" fill="#2d2e27" stroke="#2d2e27" stroke-width="1.51"/><path d="M1809,927L1499,643L1524,999Z" fill="#2c2d27" stroke="#2c2d27" stroke-width="1.51"/><path d="M1786,1214L1999,1450L2008,1144Z" fill="#30312b" stroke="#30312b" stroke-width="1.51"/><path d="M1514,1470L1825,1463L1786,1214Z" fill="#30312a" stroke="#30312a" stroke-width="1.51"/><path d="M1825,1463L1999,1450L1786,1214Z" fill="#30312b" stroke="#30312b" stroke-width="1.51"/><path d="M2008,1144L2274,1250L2125,906Z" fill="#30312a" stroke="#30312a" stroke-width="1.51"/><path d="M1999,1450L2274,1250L2008,1144Z" fill="#31322b" stroke="#31322b" stroke-width="1.51"/><path d="M2125,906L2067,667L1852,721Z" fill="#2d2e27" stroke="#2d2e27" stroke-width="1.51"/><path d="M2269,626L2067,667L2125,906Z" fill="#2d2e28" stroke="#2d2e28" stroke-width="1.51"/><path d="M2274,1250L2361,926L2125,906Z" fill="#30312b" stroke="#30312b" stroke-width="1.51"/><path d="M1552,1162L1514,1470L1786,1214Z" fill="#2f3029" stroke="#2f3029" stroke-width="1.51"/><path d="M1207,1189L1514,1470L1552,1162Z" fill="#2e2f28" stroke="#2e2f28" stroke-width="1.51"/><path d="M1852,721L1499,643L1809,927Z" fill="#2b2c26" stroke="#2b2c26" stroke-width="1.51"/><path d="M1524,999L1207,1189L1552,1162Z" fill="#2c2d27" stroke="#2c2d27" stroke-width="1.51"/><path d="M1782,459L1499,643L1852,721Z" fill="#2a2b25" stroke="#2a2b25" stroke-width="1.51"/><path d="M2361,926L2269,626L2125,906Z" fill="#2e2f29" stroke="#2e2f29" stroke-width="1.51"/><path d="M2017,443L1782,459L1852,721Z" fill="#2b2c25" stroke="#2b2c25" stroke-width="1.51"/><path d="M2017,443L1852,721L2067,667Z" fill="#2b2c26" stroke="#2b2c26" stroke-width="1.51"/><path d="M2269,626L2017,443L2067,667Z" fill="#2c2d26" stroke="#2c2d26" stroke-width="1.51"/><path d="M1999,1450L2329,1538L2274,1250Z" fill="#33342d" stroke="#33342d" stroke-width="1.51"/><path d="M2636,1282L2584,917L2361,926Z" fill="#31322c" stroke="#31322c" stroke-width="1.51"/><path d="M2063,1756L2329,1538L1999,1450Z" fill="#33342d" stroke="#33342d" stroke-width="1.51"/><path d="M1811,1736L1999,1450L1825,1463Z" fill="#32332c" stroke="#32332c" stroke-width="1.51"/><path d="M1514,1470L1811,1736L1825,1463Z" fill="#31322c" stroke="#31322c" stroke-width="1.51"/><path d="M1200,899L1207,1189L1524,999Z" fill="#2b2c26" stroke="#2b2c26" stroke-width="1.51"/><path d="M1499,643L1200,899L1524,999Z" fill="#2a2b25" stroke="#2a2b25" stroke-width="1.51"/><path d="M1811,1736L2063,1756L1999,1450Z" fill="#35362e" stroke="#35362e" stroke-width="1.51"/><path d="M1514,1470L1497,1710L1811,1736Z" fill="#33342c" stroke="#33342c" stroke-width="1.51"/><path d="M1207,1189L1271,1483L1514,1470Z" fill="#2e2f29" stroke="#2e2f29" stroke-width="1.51"/><path d="M1271,1483L1497,1710L1514,1470Z" fill="#30312a" stroke="#30312a" stroke-width="1.51"/><path d="M1499,643L1184,691L1200,899Z" fill="#292a24" stroke="#292a24" stroke-width="1.51"/><path d="M1782,459L1486,444L1499,643Z" fill="#292a24" stroke="#292a24" stroke-width="1.51"/><path d="M1511,144L1486,444L1782,459Z" fill="#282923" stroke="#282923" stroke-width="1.51"/><path d="M2361,926L2569,648L2269,626Z" fill="#2f3029" stroke="#2f3029" stroke-width="1.51"/><path d="M2636,1282L2361,926L2274,1250Z" fill="#32332c" stroke="#32332c" stroke-width="1.51"/><path d="M1210,400L1184,691L1499,643Z" fill="#292923" stroke="#292923" stroke-width="1.51"/><path d="M1200,899L977,1160L1207,1189Z" fill="#2b2c25" stroke="#2b2c25" stroke-width="1.51"/><path d="M2599,1476L2636,1282L2274,1250Z" fill="#34352e" stroke="#34352e" stroke-width="1.51"/><path d="M2269,626L2376,435L2017,443Z" fill="#2c2d27" stroke="#2c2d27" stroke-width="1.51"/><path d="M1511,144L1210,400L1486,444Z" fill="#272822" stroke="#272822" stroke-width="1.51"/><path d="M2569,648L2376,435L2269,626Z" fill="#2d2e28" stroke="#2d2e28" stroke-width="1.51"/><path d="M2584,917L2569,648L2361,926Z" fill="#30312a" stroke="#30312a" stroke-width="1.51"/><path d="M2845,907L2569,648L2584,917Z" fill="#30312b" stroke="#30312b" stroke-width="1.51"/><path d="M2653,1757L2599,1476L2329,1538Z" fill="#363730" stroke="#363730" stroke-width="1.51"/><path d="M2329,1538L2599,1476L2274,1250Z" fill="#34352e" stroke="#34352e" stroke-width="1.51"/><path d="M2063,1756L2300,1804L2329,1538Z" fill="#3b3a30" stroke="#3b3a30" stroke-width="1.51"/><path d="M2295,2015L2300,1804L2063,1756Z" fill="#494431" stroke="#494431" stroke-width="1.51"/><path d="M2033,2090L2063,1756L1811,1736Z" fill="#484330" stroke="#484330" stroke-width="1.51"/><path d="M1207,1189L1028,1553L1271,1483Z" fill="#2e2f28" stroke="#2e2f28" stroke-width="1.51"/><path d="M928,1017L977,1160L1200,899Z" fill="#2a2b25" stroke="#2a2b25" stroke-width="1.51"/><path d="M1526,2046L1760,2072L1811,1736Z" fill="#4f472f" stroke="#4f472f" stroke-width="1.51"/><path d="M1271,1483L1303,1792L1497,1710Z" fill="#34332b" stroke="#34332b" stroke-width="1.51"/><path d="M1028,1553L1303,1792L1271,1483Z" fill="#2f302a" stroke="#2f302a" stroke-width="1.51"/><path d="M1184,691L999,738L1200,899Z" fill="#282923" stroke="#282923" stroke-width="1.51"/><path d="M924,391L999,738L1184,691Z" fill="#272822" stroke="#272822" stroke-width="1.51"/><path d="M999,738L928,1017L1200,899Z" fill="#292a24" stroke="#292a24" stroke-width="1.51"/><path d="M2005,92L1782,459L2017,443Z" fill="#292a25" stroke="#292a25" stroke-width="1.51"/><path d="M1486,444L1210,400L1499,643Z" fill="#282923" stroke="#282923" stroke-width="1.51"/><path d="M977,1160L1028,1553L1207,1189Z" fill="#2c2d27" stroke="#2c2d27" stroke-width="1.51"/><path d="M989,1714L1028,1553L662,1479Z" fill="#2d2e28" stroke="#2d2e28" stroke-width="1.51"/><path d="M2910,1452L2844,1230L2636,1282Z" fill="#39392f" stroke="#39392f" stroke-width="1.51"/><path d="M2636,1282L2844,1230L2584,917Z" fill="#33342d" stroke="#33342d" stroke-width="1.51"/><path d="M2910,1452L2636,1282L2599,1476Z" fill="#35362f" stroke="#35362f" stroke-width="1.51"/><path d="M2319,162L2005,92L2017,443Z" fill="#2a2b24" stroke="#2a2b24" stroke-width="1.51"/><path d="M2569,648L2651,440L2376,435Z" fill="#2e2f28" stroke="#2e2f28" stroke-width="1.51"/><path d="M2844,1230L2845,907L2584,917Z" fill="#34352d" stroke="#34352d" stroke-width="1.51"/><path d="M1804,66L1511,144L1782,459Z" fill="#282822" stroke="#282822" stroke-width="1.51"/><path d="M1526,2046L1811,1736L1497,1710Z" fill="#443f2e" stroke="#443f2e" stroke-width="1.51"/><path d="M2376,435L2319,162L2017,443Z" fill="#2b2c26" stroke="#2b2c26" stroke-width="1.51"/><path d="M2810,424L2651,440L2569,648Z" fill="#2e2f29" stroke="#2e2f29" stroke-width="1.51"/><path d="M2005,92L1804,66L1782,459Z" fill="#282923" stroke="#282923" stroke-width="1.51"/><path d="M2615,162L2319,162L2376,435Z" fill="#2b2c26" stroke="#2b2c26" stroke-width="1.51"/><path d="M1303,1792L1526,2046L1497,1710Z" fill="#443f2e" stroke="#443f2e" stroke-width="1.51"/><path d="M1277,2007L1526,2046L1303,1792Z" fill="#4c452e" stroke="#4c452e" stroke-width="1.51"/><path d="M1760,2072L2033,2090L1811,1736Z" fill="#504930" stroke="#504930" stroke-width="1.51"/><path d="M2300,1804L2653,1757L2329,1538Z" fill="#3c3b31" stroke="#3c3b31" stroke-width="1.51"/><path d="M2033,2090L2295,2015L2063,1756Z" fill="#514a31" stroke="#514a31" stroke-width="1.51"/><path d="M2645,2071L2653,1757L2300,1804Z" fill="#4d4733" stroke="#4d4733" stroke-width="1.51"/><path d="M1028,1553L989,1714L1303,1792Z" fill="#35342a" stroke="#35342a" stroke-width="1.51"/><path d="M662,1479L1028,1553L977,1160Z" fill="#2c2d27" stroke="#2c2d27" stroke-width="1.51"/><path d="M1011,2056L1277,2007L1303,1792Z" fill="#4c442d" stroke="#4c442d" stroke-width="1.51"/><path d="M3070,640L2924,701L3139,916Z" fill="#433e2d" stroke="#433e2d" stroke-width="1.51"/><path d="M2653,1757L2910,1452L2599,1476Z" fill="#363730" stroke="#363730" stroke-width="1.51"/><path d="M2845,907L2924,701L2569,648Z" fill="#33332b" stroke="#33332b" stroke-width="1.51"/><path d="M2924,701L2845,907L3139,916Z" fill="#3f3c2d" stroke="#3f3c2d" stroke-width="1.51"/><path d="M1511,144L1261,112L1210,400Z" fill="#262621" stroke="#262621" stroke-width="1.51"/><path d="M1210,400L924,391L1184,691Z" fill="#262721" stroke="#262721" stroke-width="1.51"/><path d="M1533,-125L1261,112L1511,144Z" fill="#252620" stroke="#252620" stroke-width="1.51"/><path d="M2651,440L2615,162L2376,435Z" fill="#2c2d27" stroke="#2c2d27" stroke-width="1.51"/><path d="M2924,701L2810,424L2569,648Z" fill="#32322a" stroke="#32322a" stroke-width="1.51"/><path d="M2795,1949L2900,1766L2653,1757Z" fill="#4c4734" stroke="#4c4734" stroke-width="1.51"/><path d="M2033,2090L2250,2303L2295,2015Z" fill="#615633" stroke="#615633" stroke-width="1.51"/><path d="M1853,2272L2035,2226L2033,2090Z" fill="#655833" stroke="#655833" stroke-width="1.51"/><path d="M1853,2272L2033,2090L1760,2072Z" fill="#615432" stroke="#615432" stroke-width="1.51"/><path d="M1853,2272L1760,2072L1528,2244Z" fill="#645731" stroke="#645731" stroke-width="1.51"/><path d="M988,143L924,391L1210,400Z" fill="#252620" stroke="#252620" stroke-width="1.51"/><path d="M999,738L708,916L928,1017Z" fill="#282923" stroke="#282923" stroke-width="1.51"/><path d="M928,1017L653,1171L977,1160Z" fill="#2a2b25" stroke="#2a2b25" stroke-width="1.51"/><path d="M739,738L708,916L999,738Z" fill="#272822" stroke="#272822" stroke-width="1.51"/><path d="M924,391L739,738L999,738Z" fill="#262721" stroke="#262721" stroke-width="1.51"/><path d="M2810,424L2615,162L2651,440Z" fill="#2d2e28" stroke="#2d2e28" stroke-width="1.51"/><path d="M2034,-188L1800,-137L2005,92Z" fill="#272722" stroke="#272722" stroke-width="1.51"/><path d="M2005,92L1800,-137L1804,66Z" fill="#272722" stroke="#272722" stroke-width="1.51"/><path d="M1528,2244L1760,2072L1526,2046Z" fill="#5d5130" stroke="#5d5130" stroke-width="1.51"/><path d="M1804,66L1533,-125L1511,144Z" fill="#262721" stroke="#262721" stroke-width="1.51"/><path d="M2034,-188L2005,92L2334,-132Z" fill="#282823" stroke="#282823" stroke-width="1.51"/><path d="M502,1231L653,1171L375,943Z" fill="#282923" stroke="#282923" stroke-width="1.51"/><path d="M708,916L653,1171L928,1017Z" fill="#292a24" stroke="#292a24" stroke-width="1.51"/><path d="M1304,2272L1528,2244L1526,2046Z" fill="#625430" stroke="#625430" stroke-width="1.51"/><path d="M2645,2071L2300,1804L2295,2015Z" fill="#544c33" stroke="#544c33" stroke-width="1.51"/><path d="M2653,1757L2900,1766L2910,1452Z" fill="#403e32" stroke="#403e32" stroke-width="1.51"/><path d="M1261,112L988,143L1210,400Z" fill="#252520" stroke="#252520" stroke-width="1.51"/><path d="M1800,-137L1533,-125L1804,66Z" fill="#262621" stroke="#262621" stroke-width="1.51"/><path d="M2553,2220L2645,2071L2295,2015Z" fill="#605535" stroke="#605535" stroke-width="1.51"/><path d="M653,1171L662,1479L977,1160Z" fill="#2b2c25" stroke="#2b2c25" stroke-width="1.51"/><path d="M989,1714L1011,2056L1303,1792Z" fill="#433e2c" stroke="#433e2c" stroke-width="1.51"/><path d="M1277,2007L1304,2272L1526,2046Z" fill="#5a4f2f" stroke="#5a4f2f" stroke-width="1.51"/><path d="M2334,-132L2005,92L2319,162Z" fill="#292a24" stroke="#292a24" stroke-width="1.51"/><path d="M1800,-137L1550,-374L1533,-125Z" fill="#242520" stroke="#242520" stroke-width="1.51"/><path d="M2645,2071L2795,1949L2653,1757Z" fill="#524b34" stroke="#524b34" stroke-width="1.51"/><path d="M924,391L654,429L739,738Z" fill="#252620" stroke="#252620" stroke-width="1.51"/><path d="M1187,-178L988,143L1261,112Z" fill="#23241f" stroke="#23241f" stroke-width="1.51"/><path d="M2924,701L3070,640L2810,424Z" fill="#3b392b" stroke="#3b392b" stroke-width="1.51"/><path d="M2810,424L2915,140L2615,162Z" fill="#303028" stroke="#303028" stroke-width="1.51"/><path d="M3139,916L2845,907L2844,1230Z" fill="#3f3c2f" stroke="#3f3c2f" stroke-width="1.51"/><path d="M3139,916L2844,1230L3170,1270Z" fill="#464230" stroke="#464230" stroke-width="1.51"/><path d="M3170,1270L2844,1230L2910,1452Z" fill="#433f31" stroke="#433f31" stroke-width="1.51"/><path d="M2035,2226L2250,2303L2033,2090Z" fill="#685a33" stroke="#685a33" stroke-width="1.51"/><path d="M2015,2492L2250,2303L2035,2226Z" fill="#736334" stroke="#736334" stroke-width="1.51"/><path d="M2526,-160L2334,-132L2319,162Z" fill="#292a24" stroke="#292a24" stroke-width="1.51"/><path d="M673,1802L1011,2056L989,1714Z" fill="#423d2b" stroke="#423d2b" stroke-width="1.51"/><path d="M3188,1478L3170,1270L2910,1452Z" fill="#4a4532" stroke="#4a4532" stroke-width="1.51"/><path d="M1011,2056L1304,2272L1277,2007Z" fill="#5a4f2e" stroke="#5a4f2e" stroke-width="1.51"/><path d="M1812,2568L2015,2492L1853,2272Z" fill="#7b6833" stroke="#7b6833" stroke-width="1.51"/><path d="M1853,2272L2015,2492L2035,2226Z" fill="#716133" stroke="#716133" stroke-width="1.51"/><path d="M3123,2245L3175,2047L2795,1949Z" fill="#726237" stroke="#726237" stroke-width="1.51"/><path d="M2250,2303L2553,2220L2295,2015Z" fill="#665935" stroke="#665935" stroke-width="1.51"/><path d="M662,1479L673,1802L989,1714Z" fill="#313128" stroke="#313128" stroke-width="1.51"/><path d="M653,1171L502,1231L662,1479Z" fill="#2a2b25" stroke="#2a2b25" stroke-width="1.51"/><path d="M375,943L653,1171L708,916Z" fill="#282923" stroke="#282923" stroke-width="1.51"/><path d="M447,639L708,916L739,738Z" fill="#262721" stroke="#262721" stroke-width="1.51"/><path d="M744,201L654,429L924,391Z" fill="#242520" stroke="#242520" stroke-width="1.51"/><path d="M3155,1700L3188,1478L2910,1452Z" fill="#4b4633" stroke="#4b4633" stroke-width="1.51"/><path d="M3155,1700L2910,1452L2900,1766Z" fill="#484433" stroke="#484433" stroke-width="1.51"/><path d="M3070,640L3098,437L2810,424Z" fill="#3d3a2b" stroke="#3d3a2b" stroke-width="1.51"/><path d="M2615,162L2526,-160L2319,162Z" fill="#2b2b25" stroke="#2b2b25" stroke-width="1.51"/><path d="M3332,625L3098,437L3070,640Z" fill="#48422c" stroke="#48422c" stroke-width="1.51"/><path d="M3332,625L3070,640L3139,916Z" fill="#4a442e" stroke="#4a442e" stroke-width="1.51"/><path d="M3376,1223L3139,916L3170,1270Z" fill="#504931" stroke="#504931" stroke-width="1.51"/><path d="M402,1815L673,1802L662,1479Z" fill="#333228" stroke="#333228" stroke-width="1.51"/><path d="M2923,-91L2526,-160L2615,162Z" fill="#2b2c26" stroke="#2b2c26" stroke-width="1.51"/><path d="M2047,-450L1824,-444L2034,-188Z" fill="#252521" stroke="#252521" stroke-width="1.51"/><path d="M3098,437L2915,140L2810,424Z" fill="#3a372a" stroke="#3a372a" stroke-width="1.51"/><path d="M988,143L744,201L924,391Z" fill="#24251f" stroke="#24251f" stroke-width="1.51"/><path d="M945,-164L744,201L988,143Z" fill="#23231e" stroke="#23231e" stroke-width="1.51"/><path d="M2250,2303L2610,2553L2553,2220Z" fill="#776636" stroke="#776636" stroke-width="1.51"/><path d="M1812,2568L1853,2272L1543,2543Z" fill="#7c6833" stroke="#7c6833" stroke-width="1.51"/><path d="M1533,-125L1187,-178L1261,112Z" fill="#24241f" stroke="#24241f" stroke-width="1.51"/><path d="M1277,-395L1187,-178L1533,-125Z" fill="#23231e" stroke="#23231e" stroke-width="1.51"/><path d="M3175,2047L2900,1766L2795,1949Z" fill="#5f5436" stroke="#5f5436" stroke-width="1.51"/><path d="M3175,2047L3155,1700L2900,1766Z" fill="#5f5435" stroke="#5f5435" stroke-width="1.51"/><path d="M479,403L447,639L654,429Z" fill="#24241f" stroke="#24241f" stroke-width="1.51"/><path d="M654,429L447,639L739,738Z" fill="#252620" stroke="#252620" stroke-width="1.51"/><path d="M1824,-444L1550,-374L1800,-137Z" fill="#242520" stroke="#242520" stroke-width="1.51"/><path d="M1824,-444L1800,-137L2034,-188Z" fill="#262621" stroke="#262621" stroke-width="1.51"/><path d="M1543,2543L1853,2272L1528,2244Z" fill="#716132" stroke="#716132" stroke-width="1.51"/><path d="M447,639L375,943L708,916Z" fill="#262721" stroke="#262721" stroke-width="1.51"/><path d="M502,1231L402,1424L662,1479Z" fill="#2a2b26" stroke="#2a2b26" stroke-width="1.51"/><path d="M974,2338L1304,2272L1011,2056Z" fill="#63552e" stroke="#63552e" stroke-width="1.51"/><path d="M1288,2537L1543,2543L1304,2272Z" fill="#796631" stroke="#796631" stroke-width="1.51"/><path d="M1304,2272L1543,2543L1528,2244Z" fill="#706031" stroke="#706031" stroke-width="1.51"/><path d="M109,1167L402,1424L502,1231Z" fill="#292a24" stroke="#292a24" stroke-width="1.51"/><path d="M3424,1513L3376,1223L3188,1478Z" fill="#594f34" stroke="#594f34" stroke-width="1.51"/><path d="M3188,1478L3376,1223L3170,1270Z" fill="#534b32" stroke="#534b32" stroke-width="1.51"/><path d="M2047,-450L2034,-188L2326,-423Z" fill="#262621" stroke="#262621" stroke-width="1.51"/><path d="M673,1802L698,2060L1011,2056Z" fill="#4c442c" stroke="#4c442c" stroke-width="1.51"/><path d="M448,2073L698,2060L673,1802Z" fill="#4c432b" stroke="#4c432b" stroke-width="1.51"/><path d="M3126,86L2923,-91L2915,140Z" fill="#3a3728" stroke="#3a3728" stroke-width="1.51"/><path d="M3444,1015L3332,625L3139,916Z" fill="#534a2f" stroke="#534a2f" stroke-width="1.51"/><path d="M2326,-423L2034,-188L2334,-132Z" fill="#272822" stroke="#272822" stroke-width="1.51"/><path d="M744,201L479,403L654,429Z" fill="#24241f" stroke="#24241f" stroke-width="1.51"/><path d="M178,667L149,956L375,943Z" fill="#252620" stroke="#252620" stroke-width="1.51"/><path d="M455,120L479,403L744,201Z" fill="#22231e" stroke="#22231e" stroke-width="1.51"/><path d="M1187,-178L945,-164L988,143Z" fill="#22231e" stroke="#22231e" stroke-width="1.51"/><path d="M941,-383L945,-164L1187,-178Z" fill="#21221d" stroke="#21221d" stroke-width="1.51"/><path d="M743,2305L974,2338L1011,2056Z" fill="#63552d" stroke="#63552d" stroke-width="1.51"/><path d="M2577,-354L2326,-423L2526,-160Z" fill="#282823" stroke="#282823" stroke-width="1.51"/><path d="M2526,-160L2326,-423L2334,-132Z" fill="#282923" stroke="#282923" stroke-width="1.51"/><path d="M974,2338L1288,2537L1304,2272Z" fill="#726030" stroke="#726030" stroke-width="1.51"/><path d="M1543,2543L1288,2537L1812,2568Z" fill="#826d32" stroke="#826d32" stroke-width="1.51"/><path d="M2915,140L2923,-91L2615,162Z" fill="#313027" stroke="#313027" stroke-width="1.51"/><path d="M3126,86L2915,140L3098,437Z" fill="#3f3a29" stroke="#3f3a29" stroke-width="1.51"/><path d="M3376,1223L3444,1015L3139,916Z" fill="#554b31" stroke="#554b31" stroke-width="1.51"/><path d="M1824,-444L1277,-395L1550,-374Z" fill="#23231e" stroke="#23231e" stroke-width="1.51"/><path d="M1550,-374L1277,-395L1533,-125Z" fill="#23231f" stroke="#23231f" stroke-width="1.51"/><path d="M2015,2492L2269,2614L2250,2303Z" fill="#7f6b35" stroke="#7f6b35" stroke-width="1.51"/><path d="M2925,2333L2795,1949L2645,2071Z" fill="#665a36" stroke="#665a36" stroke-width="1.51"/><path d="M1812,2568L2269,2614L2015,2492Z" fill="#867134" stroke="#867134" stroke-width="1.51"/><path d="M512,2596L2269,2614L1812,2568Z" fill="#867032" stroke="#867032" stroke-width="1.51"/><path d="M2923,-91L2577,-354L2526,-160Z" fill="#292a25" stroke="#292a25" stroke-width="1.51"/><path d="M3408,83L3126,86L3098,437Z" fill="#48412b" stroke="#48412b" stroke-width="1.51"/><path d="M3155,1700L3424,1513L3188,1478Z" fill="#554d34" stroke="#554d34" stroke-width="1.51"/><path d="M3376,1223L3633,1192L3444,1015Z" fill="#5f5432" stroke="#5f5432" stroke-width="1.51"/><path d="M3397,1816L3424,1513L3155,1700Z" fill="#5f5436" stroke="#5f5436" stroke-width="1.51"/><path d="M2925,2333L2645,2071L2553,2220Z" fill="#6b5d36" stroke="#6b5d36" stroke-width="1.51"/><path d="M698,2060L743,2305L1011,2056Z" fill="#5a4e2d" stroke="#5a4e2d" stroke-width="1.51"/><path d="M402,1424L402,1815L662,1479Z" fill="#2b2c26" stroke="#2b2c26" stroke-width="1.51"/><path d="M214,1713L402,1815L402,1424Z" fill="#2e2e27" stroke="#2e2e27" stroke-width="1.51"/><path d="M2849,2510L2925,2333L2553,2220Z" fill="#7b6938" stroke="#7b6938" stroke-width="1.51"/><path d="M2269,2614L2610,2553L2250,2303Z" fill="#826e36" stroke="#826e36" stroke-width="1.51"/><path d="M433,2273L743,2305L698,2060Z" fill="#60522c" stroke="#60522c" stroke-width="1.51"/><path d="M974,2338L913,2500L1288,2537Z" fill="#786430" stroke="#786430" stroke-width="1.51"/><path d="M3340,2090L3397,1816L3175,2047Z" fill="#796837" stroke="#796837" stroke-width="1.51"/><path d="M3175,2047L3397,1816L3155,1700Z" fill="#6a5d37" stroke="#6a5d37" stroke-width="1.51"/><path d="M178,667L375,943L447,639Z" fill="#252620" stroke="#252620" stroke-width="1.51"/><path d="M653,-161L455,120L744,201Z" fill="#22221d" stroke="#22221d" stroke-width="1.51"/><path d="M653,-161L744,201L945,-164Z" fill="#21221d" stroke="#21221d" stroke-width="1.51"/><path d="M743,2305L913,2500L974,2338Z" fill="#705f2e" stroke="#705f2e" stroke-width="1.51"/><path d="M2925,2333L3123,2245L2795,1949Z" fill="#756537" stroke="#756537" stroke-width="1.51"/><path d="M3076,2613L3123,2245L2925,2333Z" fill="#8f7838" stroke="#8f7838" stroke-width="1.51"/><path d="M375,943L109,1167L502,1231Z" fill="#272823" stroke="#272823" stroke-width="1.51"/><path d="M178,667L447,639L151,403Z" fill="#23241f" stroke="#23241f" stroke-width="1.51"/><path d="M1277,-395L941,-383L1187,-178Z" fill="#21221d" stroke="#21221d" stroke-width="1.51"/><path d="M210,-426L941,-383L1277,-395Z" fill="#1f201b" stroke="#1f201b" stroke-width="1.51"/><path d="M691,-366L653,-161L945,-164Z" fill="#20211c" stroke="#20211c" stroke-width="1.51"/><path d="M743,2305L703,2541L913,2500Z" fill="#75622f" stroke="#75622f" stroke-width="1.51"/><path d="M402,1815L448,2073L673,1802Z" fill="#443d29" stroke="#443d29" stroke-width="1.51"/><path d="M210,2027L448,2073L402,1815Z" fill="#49412a" stroke="#49412a" stroke-width="1.51"/><path d="M3332,625L3467,413L3098,437Z" fill="#4f472c" stroke="#4f472c" stroke-width="1.51"/><path d="M3684,698L3467,413L3332,625Z" fill="#5b502e" stroke="#5b502e" stroke-width="1.51"/><path d="M151,403L447,639L479,403Z" fill="#23241e" stroke="#23241e" stroke-width="1.51"/><path d="M2610,2553L2849,2510L2553,2220Z" fill="#7e6b37" stroke="#7e6b37" stroke-width="1.51"/><path d="M-76,1185L109,1167L-104,996Z" fill="#262621" stroke="#262621" stroke-width="1.51"/><path d="M149,956L109,1167L375,943Z" fill="#262722" stroke="#262722" stroke-width="1.51"/><path d="M109,1167L145,1481L402,1424Z" fill="#292a24" stroke="#292a24" stroke-width="1.51"/><path d="M145,1481L214,1713L402,1424Z" fill="#2a2b26" stroke="#2a2b26" stroke-width="1.51"/><path d="M3444,1015L3638,944L3332,625Z" fill="#5c5130" stroke="#5c5130" stroke-width="1.51"/><path d="M3424,1513L3633,1192L3376,1223Z" fill="#605534" stroke="#605534" stroke-width="1.51"/><path d="M3708,1550L3633,1192L3424,1513Z" fill="#685a35" stroke="#685a35" stroke-width="1.51"/><path d="M3633,1192L3638,944L3444,1015Z" fill="#645632" stroke="#645632" stroke-width="1.51"/><path d="M3432,2338L3340,2090L3123,2245Z" fill="#8f7838" stroke="#8f7838" stroke-width="1.51"/><path d="M3123,2245L3340,2090L3175,2047Z" fill="#816d38" stroke="#816d38" stroke-width="1.51"/><path d="M3397,1816L3627,1700L3424,1513Z" fill="#685b36" stroke="#685b36" stroke-width="1.51"/><path d="M3190,-171L2876,-431L2923,-91Z" fill="#393527" stroke="#393527" stroke-width="1.51"/><path d="M2923,-91L2876,-431L2577,-354Z" fill="#2d2c25" stroke="#2d2c25" stroke-width="1.51"/><path d="M2577,-354L2876,-431L2326,-423Z" fill="#282923" stroke="#282923" stroke-width="1.51"/><path d="M2326,-423L2876,-431L2047,-450Z" fill="#272722" stroke="#272722" stroke-width="1.51"/><path d="M3190,-171L2923,-91L3126,86Z" fill="#3e3928" stroke="#3e3928" stroke-width="1.51"/><path d="M3408,83L3190,-171L3126,86Z" fill="#48402a" stroke="#48402a" stroke-width="1.51"/><path d="M3467,413L3408,83L3098,437Z" fill="#4f462c" stroke="#4f462c" stroke-width="1.51"/><path d="M3623,105L3408,83L3467,413Z" fill="#584d2c" stroke="#584d2c" stroke-width="1.51"/><path d="M225,99L151,403L479,403Z" fill="#22221d" stroke="#22221d" stroke-width="1.51"/><path d="M-104,996L109,1167L149,956Z" fill="#262621" stroke="#262621" stroke-width="1.51"/><path d="M225,99L479,403L455,120Z" fill="#22221d" stroke="#22221d" stroke-width="1.51"/><path d="M653,-161L416,-65L455,120Z" fill="#20211c" stroke="#20211c" stroke-width="1.51"/><path d="M450,-386L416,-65L653,-161Z" fill="#1f1f1b" stroke="#1f1f1b" stroke-width="1.51"/><path d="M3901,645L3684,698L3962,923Z" fill="#716031" stroke="#716031" stroke-width="1.51"/><path d="M3638,944L3684,698L3332,625Z" fill="#605430" stroke="#605430" stroke-width="1.51"/><path d="M941,-383L691,-366L945,-164Z" fill="#20211c" stroke="#20211c" stroke-width="1.51"/><path d="M450,-386L691,-366L941,-383Z" fill="#1f1f1b" stroke="#1f1f1b" stroke-width="1.51"/><path d="M210,2027L433,2273L448,2073Z" fill="#564b2b" stroke="#564b2b" stroke-width="1.51"/><path d="M448,2073L433,2273L698,2060Z" fill="#584c2c" stroke="#584c2c" stroke-width="1.51"/><path d="M913,2500L703,2541L1288,2537Z" fill="#7d692f" stroke="#7d692f" stroke-width="1.51"/><path d="M1288,2537L512,2596L1812,2568Z" fill="#826d30" stroke="#826d30" stroke-width="1.51"/><path d="M433,2273L703,2541L743,2305Z" fill="#6e5c2d" stroke="#6e5c2d" stroke-width="1.51"/><path d="M3630,2030L3627,1700L3397,1816Z" fill="#7c6a38" stroke="#7c6a38" stroke-width="1.51"/><path d="M3633,1192L3883,1245L3638,944Z" fill="#6d5e33" stroke="#6d5e33" stroke-width="1.51"/><path d="M3627,1700L3708,1550L3424,1513Z" fill="#6a5c36" stroke="#6a5c36" stroke-width="1.51"/><path d="M-31,1960L210,2027L214,1713Z" fill="#423c28" stroke="#423c28" stroke-width="1.51"/><path d="M214,1713L210,2027L402,1815Z" fill="#3f3929" stroke="#3f3929" stroke-width="1.51"/><path d="M416,-65L225,99L455,120Z" fill="#20211c" stroke="#20211c" stroke-width="1.51"/><path d="M171,-156L225,99L416,-65Z" fill="#20201b" stroke="#20201b" stroke-width="1.51"/><path d="M3684,698L3669,385L3467,413Z" fill="#61542e" stroke="#61542e" stroke-width="1.51"/><path d="M3408,83L3400,-183L3190,-171Z" fill="#4d442a" stroke="#4d442a" stroke-width="1.51"/><path d="M145,1481L-157,1769L214,1713Z" fill="#2d2d26" stroke="#2d2d26" stroke-width="1.51"/><path d="M109,1167L-76,1185L145,1481Z" fill="#282823" stroke="#282823" stroke-width="1.51"/><path d="M-104,996L149,956L-114,677Z" fill="#242520" stroke="#242520" stroke-width="1.51"/><path d="M149,956L178,667L-114,677Z" fill="#24241f" stroke="#24241f" stroke-width="1.51"/><path d="M3340,2090L3630,2030L3397,1816Z" fill="#826e38" stroke="#826e38" stroke-width="1.51"/><path d="M2849,2510L3076,2613L2925,2333Z" fill="#927a38" stroke="#927a38" stroke-width="1.51"/><path d="M2610,2553L3076,2613L2849,2510Z" fill="#927a38" stroke="#927a38" stroke-width="1.51"/><path d="M2269,2614L3076,2613L2610,2553Z" fill="#8d7638" stroke="#8d7638" stroke-width="1.51"/><path d="M-114,677L178,667L151,403Z" fill="#23231e" stroke="#23231e" stroke-width="1.51"/><path d="M3190,-171L3143,-464L2876,-431Z" fill="#3c3626" stroke="#3c3626" stroke-width="1.51"/><path d="M3653,-142L3400,-183L3408,83Z" fill="#554a2a" stroke="#554a2a" stroke-width="1.51"/><path d="M3338,-471L3143,-464L3190,-171Z" fill="#443d27" stroke="#443d27" stroke-width="1.51"/><path d="M2876,-431L3143,-464L2047,-450Z" fill="#282924" stroke="#282924" stroke-width="1.51"/><path d="M3942,1747L3928,1541L3708,1550Z" fill="#7a6837" stroke="#7a6837" stroke-width="1.51"/><path d="M3595,2329L3630,2030L3340,2090Z" fill="#967d38" stroke="#967d38" stroke-width="1.51"/><path d="M3669,385L3623,105L3467,413Z" fill="#5e522d" stroke="#5e522d" stroke-width="1.51"/><path d="M3076,2613L3432,2338L3123,2245Z" fill="#9a8039" stroke="#9a8039" stroke-width="1.51"/><path d="M-160,377L-114,677L151,403Z" fill="#21221d" stroke="#21221d" stroke-width="1.51"/><path d="M3928,1541L3883,1245L3708,1550Z" fill="#776636" stroke="#776636" stroke-width="1.51"/><path d="M3708,1550L3883,1245L3633,1192Z" fill="#706035" stroke="#706035" stroke-width="1.51"/><path d="M3684,698L3881,411L3669,385Z" fill="#695a2e" stroke="#695a2e" stroke-width="1.51"/><path d="M3669,385L3881,411L3623,105Z" fill="#66582d" stroke="#66582d" stroke-width="1.51"/><path d="M-126,81L-160,377L151,403Z" fill="#20201c" stroke="#20201c" stroke-width="1.51"/><path d="M691,-366L450,-386L653,-161Z" fill="#1f1f1b" stroke="#1f1f1b" stroke-width="1.51"/><path d="M210,-426L450,-386L941,-383Z" fill="#1e1e1a" stroke="#1e1e1a" stroke-width="1.51"/><path d="M175,2361L512,2596L433,2273Z" fill="#6f5d2c" stroke="#6f5d2c" stroke-width="1.51"/><path d="M433,2273L512,2596L703,2541Z" fill="#76632e" stroke="#76632e" stroke-width="1.51"/><path d="M703,2541L512,2596L1288,2537Z" fill="#7f6a2f" stroke="#7f6a2f" stroke-width="1.51"/><path d="M-76,1185L-150,1496L145,1481Z" fill="#282923" stroke="#282923" stroke-width="1.51"/><path d="M210,2027L175,2361L433,2273Z" fill="#5e512b" stroke="#5e512b" stroke-width="1.51"/><path d="M-324,1420L-150,1496L-76,1185Z" fill="#272822" stroke="#272822" stroke-width="1.51"/><path d="M-302,943L-76,1185L-104,996Z" fill="#252520" stroke="#252520" stroke-width="1.51"/><path d="M3962,923L3684,698L3638,944Z" fill="#6d5d31" stroke="#6d5d31" stroke-width="1.51"/><path d="M-157,1769L-31,1960L214,1713Z" fill="#3a3627" stroke="#3a3627" stroke-width="1.51"/><path d="M450,-386L171,-156L416,-65Z" fill="#1e1f1b" stroke="#1e1f1b" stroke-width="1.51"/><path d="M3883,1245L3962,923L3638,944Z" fill="#736233" stroke="#736233" stroke-width="1.51"/><path d="M3942,1747L3708,1550L3627,1700Z" fill="#786737" stroke="#786737" stroke-width="1.51"/><path d="M4261,1178L4253,931L3962,923Z" fill="#867033" stroke="#867033" stroke-width="1.51"/><path d="M-31,1960L175,2361L210,2027Z" fill="#55492a" stroke="#55492a" stroke-width="1.51"/><path d="M3901,645L3881,411L3684,698Z" fill="#6e5e30" stroke="#6e5e30" stroke-width="1.51"/><path d="M3722,-397L3338,-471L3400,-183Z" fill="#534829" stroke="#534829" stroke-width="1.51"/><path d="M3973,91L3881,411L4164,107Z" fill="#76632e" stroke="#76632e" stroke-width="1.51"/><path d="M3400,-183L3338,-471L3190,-171Z" fill="#4a4228" stroke="#4a4228" stroke-width="1.51"/><path d="M3143,-464L3338,-471L2047,-450Z" fill="#2f2d25" stroke="#2f2d25" stroke-width="1.51"/><path d="M3653,-142L3408,83L3623,105Z" fill="#5b4e2b" stroke="#5b4e2b" stroke-width="1.51"/><path d="M3460,2567L3595,2329L3432,2338Z" fill="#ad8e38" stroke="#ad8e38" stroke-width="1.51"/><path d="M3432,2338L3595,2329L3340,2090Z" fill="#9b8138" stroke="#9b8138" stroke-width="1.51"/><path d="M3867,1950L3942,1747L3627,1700Z" fill="#877238" stroke="#877238" stroke-width="1.51"/><path d="M-150,1496L-157,1769L145,1481Z" fill="#292a24" stroke="#292a24" stroke-width="1.51"/><path d="M-48,2523L133,2524L175,2361Z" fill="#73602b" stroke="#73602b" stroke-width="1.51"/><path d="M-114,677L-302,943L-104,996Z" fill="#24241f" stroke="#24241f" stroke-width="1.51"/><path d="M-150,1496L-430,1692L-157,1769Z" fill="#2c2b25" stroke="#2c2b25" stroke-width="1.51"/><path d="M-126,81L151,403L225,99Z" fill="#20201c" stroke="#20201c" stroke-width="1.51"/><path d="M3973,91L3653,-142L3623,105Z" fill="#65562c" stroke="#65562c" stroke-width="1.51"/><path d="M-393,725L-302,943L-114,677Z" fill="#22231e" stroke="#22231e" stroke-width="1.51"/><path d="M3867,1950L3627,1700L3630,2030Z" fill="#897438" stroke="#897438" stroke-width="1.51"/><path d="M4238,1526L4261,1178L3883,1245Z" fill="#877136" stroke="#877136" stroke-width="1.51"/><path d="M3900,2226L3867,1950L3630,2030Z" fill="#9f8438" stroke="#9f8438" stroke-width="1.51"/><path d="M3076,2613L3460,2567L3432,2338Z" fill="#ab8d39" stroke="#ab8d39" stroke-width="1.51"/><path d="M3900,2226L3630,2030L3595,2329Z" fill="#a58838" stroke="#a58838" stroke-width="1.51"/><path d="M-433,1270L-324,1420L-76,1185Z" fill="#262722" stroke="#262722" stroke-width="1.51"/><path d="M171,-156L-126,81L225,99Z" fill="#1f1f1b" stroke="#1f1f1b" stroke-width="1.51"/><path d="M-160,377L-393,725L-114,677Z" fill="#21221d" stroke="#21221d" stroke-width="1.51"/><path d="M-160,-130L-126,81L171,-156Z" fill="#1e1e1a" stroke="#1e1e1a" stroke-width="1.51"/><path d="M450,-386L210,-426L171,-156Z" fill="#1e1e1a" stroke="#1e1e1a" stroke-width="1.51"/><path d="M1824,-444L210,-426L1277,-395Z" fill="#20211c" stroke="#20211c" stroke-width="1.51"/><path d="M-375,-468L210,-426L1824,-444Z" fill="#1e1e1a" stroke="#1e1e1a" stroke-width="1.51"/><path d="M-375,-468L1824,-444L2047,-450Z" fill="#20211c" stroke="#20211c" stroke-width="1.51"/><path d="M-309,1949L-31,1960L-157,1769Z" fill="#403a27" stroke="#403a27" stroke-width="1.51"/><path d="M-120,2345L175,2361L-31,1960Z" fill="#5d4f2a" stroke="#5d4f2a" stroke-width="1.51"/><path d="M175,2361L133,2524L512,2596Z" fill="#77622c" stroke="#77622c" stroke-width="1.51"/><path d="M-302,943L-433,1270L-76,1185Z" fill="#252621" stroke="#252621" stroke-width="1.51"/><path d="M-432,360L-393,725L-160,377Z" fill="#20211c" stroke="#20211c" stroke-width="1.51"/><path d="M-430,1692L-309,1949L-157,1769Z" fill="#383426" stroke="#383426" stroke-width="1.51"/><path d="M-393,725L-433,1270L-302,943Z" fill="#23241f" stroke="#23241f" stroke-width="1.51"/><path d="M3881,411L3973,91L3623,105Z" fill="#6b5a2d" stroke="#6b5a2d" stroke-width="1.51"/><path d="M3653,-142L3722,-397L3400,-183Z" fill="#5a4d29" stroke="#5a4d29" stroke-width="1.51"/><path d="M4248,647L3881,411L3901,645Z" fill="#796630" stroke="#796630" stroke-width="1.51"/><path d="M-126,81L-300,207L-160,377Z" fill="#1f1f1b" stroke="#1f1f1b" stroke-width="1.51"/><path d="M-342,-152L-300,207L-126,81Z" fill="#1d1e1a" stroke="#1d1e1a" stroke-width="1.51"/><path d="M3460,2567L3683,2542L3595,2329Z" fill="#b99738" stroke="#b99738" stroke-width="1.51"/><path d="M4190,2008L4152,1692L3942,1747Z" fill="#9b8139" stroke="#9b8139" stroke-width="1.51"/><path d="M3970,2566L3683,2542L3460,2567Z" fill="#c8a337" stroke="#c8a337" stroke-width="1.51"/><path d="M3683,2542L3900,2226L3595,2329Z" fill="#b79638" stroke="#b79638" stroke-width="1.51"/><path d="M-430,1692L-150,1496L-324,1420Z" fill="#282923" stroke="#282923" stroke-width="1.51"/><path d="M-309,1949L-120,2345L-31,1960Z" fill="#504629" stroke="#504629" stroke-width="1.51"/><path d="M-81,-411L-160,-130L171,-156Z" fill="#1d1d19" stroke="#1d1d19" stroke-width="1.51"/><path d="M4190,2008L3942,1747L3867,1950Z" fill="#9c8238" stroke="#9c8238" stroke-width="1.51"/><path d="M3942,1747L4152,1692L3928,1541Z" fill="#867138" stroke="#867138" stroke-width="1.51"/><path d="M3962,923L4248,647L3901,645Z" fill="#7d6931" stroke="#7d6931" stroke-width="1.51"/><path d="M3950,-342L3722,-397L3653,-142Z" fill="#64552a" stroke="#64552a" stroke-width="1.51"/><path d="M-433,1270L-430,1692L-324,1420Z" fill="#272823" stroke="#272823" stroke-width="1.51"/><path d="M4261,1178L3962,923L3883,1245Z" fill="#806c34" stroke="#806c34" stroke-width="1.51"/><path d="M-335,2622L-48,2523L-120,2345Z" fill="#74602a" stroke="#74602a" stroke-width="1.51"/><path d="M-120,2345L-48,2523L175,2361Z" fill="#6d5c2b" stroke="#6d5c2b" stroke-width="1.51"/><path d="M133,2524L-335,2622L512,2596Z" fill="#7d672b" stroke="#7d672b" stroke-width="1.51"/><path d="M-394,2265L-120,2345L-309,1949Z" fill="#594b29" stroke="#594b29" stroke-width="1.51"/><path d="M4238,1526L3883,1245L3928,1541Z" fill="#816d36" stroke="#816d36" stroke-width="1.51"/><path d="M-393,725L-432,360L-433,1270Z" fill="#22231e" stroke="#22231e" stroke-width="1.51"/><path d="M-300,207L-432,360L-160,377Z" fill="#1f201b" stroke="#1f201b" stroke-width="1.51"/><path d="M-342,-152L-432,360L-300,207Z" fill="#1e1e1a" stroke="#1e1e1a" stroke-width="1.51"/><path d="M4152,1692L4238,1526L3928,1541Z" fill="#897338" stroke="#897338" stroke-width="1.51"/><path d="M4190,2008L4238,1526L4152,1692Z" fill="#9a7f39" stroke="#9a7f39" stroke-width="1.51"/><path d="M4269,396L4248,647L4253,931Z" fill="#897231" stroke="#897231" stroke-width="1.51"/><path d="M4253,931L4248,647L3962,923Z" fill="#846e32" stroke="#846e32" stroke-width="1.51"/><path d="M4164,107L3972,-154L3973,91Z" fill="#76632c" stroke="#76632c" stroke-width="1.51"/><path d="M3973,91L3972,-154L3653,-142Z" fill="#6c5a2c" stroke="#6c5a2c" stroke-width="1.51"/><path d="M-160,-130L-342,-152L-126,81Z" fill="#1d1d19" stroke="#1d1d19" stroke-width="1.51"/><path d="M210,-426L-81,-411L171,-156Z" fill="#1d1d19" stroke="#1d1d19" stroke-width="1.51"/><path d="M4269,396L4164,107L3881,411Z" fill="#7d682e" stroke="#7d682e" stroke-width="1.51"/><path d="M4248,647L4269,396L3881,411Z" fill="#806a2f" stroke="#806a2f" stroke-width="1.51"/><path d="M4261,1178L4269,396L4253,931Z" fill="#8b7332" stroke="#8b7332" stroke-width="1.51"/><path d="M3900,2226L4190,2008L3867,1950Z" fill="#aa8c39" stroke="#aa8c39" stroke-width="1.51"/><path d="M4164,2259L4190,2008L3900,2226Z" fill="#bb9938" stroke="#bb9938" stroke-width="1.51"/><path d="M4159,-383L3950,-342L3972,-154Z" fill="#735f2b" stroke="#735f2b" stroke-width="1.51"/><path d="M3972,-154L3950,-342L3653,-142Z" fill="#6a592b" stroke="#6a592b" stroke-width="1.51"/><path d="M-81,-411L-342,-152L-160,-130Z" fill="#1c1c18" stroke="#1c1c18" stroke-width="1.51"/><path d="M-430,1692L-394,2265L-309,1949Z" fill="#453d27" stroke="#453d27" stroke-width="1.51"/><path d="M3683,2542L3970,2566L3900,2226Z" fill="#c6a138" stroke="#c6a138" stroke-width="1.51"/><path d="M3076,2613L3970,2566L3460,2567Z" fill="#bd9a38" stroke="#bd9a38" stroke-width="1.51"/><path d="M3970,2566L4164,2259L3900,2226Z" fill="#c8a238" stroke="#c8a238" stroke-width="1.51"/><path d="M4164,107L4232,-90L3972,-154Z" fill="#7b662c" stroke="#7b662c" stroke-width="1.51"/><path d="M4269,396L4232,-90L4164,107Z" fill="#826c2d" stroke="#826c2d" stroke-width="1.51"/><path d="M-394,2265L-335,2622L-120,2345Z" fill="#6c5a2a" stroke="#6c5a2a" stroke-width="1.51"/><path d="M-48,2523L-335,2622L133,2524Z" fill="#7a652b" stroke="#7a652b" stroke-width="1.51"/><path d="M512,2596L-335,2622L2269,2614Z" fill="#846d2f" stroke="#846d2f" stroke-width="1.51"/><path d="M2269,2614L-335,2622L3076,2613Z" fill="#897233" stroke="#897233" stroke-width="1.51"/><path d="M4232,-90L4159,-383L3972,-154Z" fill="#79642b" stroke="#79642b" stroke-width="1.51"/><path d="M3950,-342L4159,-383L3722,-397Z" fill="#6e5b2a" stroke="#6e5b2a" stroke-width="1.51"/><path d="M3722,-397L4159,-383L3338,-471Z" fill="#615229" stroke="#615229" stroke-width="1.51"/><path d="M-81,-411L-375,-468L-342,-152Z" fill="#1b1c18" stroke="#1b1c18" stroke-width="1.51"/><path d="M-342,-152L-375,-468L-432,360Z" fill="#1c1c19" stroke="#1c1c19" stroke-width="1.51"/><path d="M210,-426L-375,-468L-81,-411Z" fill="#1b1b18" stroke="#1b1b18" stroke-width="1.51"/><path d="M3338,-471L-375,-468L2047,-450Z" fill="#23231f" stroke="#23231f" stroke-width="1.51"/><path d="M4164,2259L4235,2572L4190,2008Z" fill="#cda637" stroke="#cda637" stroke-width="1.51"/><path d="M4190,2008L4235,2572L4238,1526Z" fill="#b79539" stroke="#b79539" stroke-width="1.51"/><path d="M4238,1526L4235,2572L4261,1178Z" fill="#9e8338" stroke="#9e8338" stroke-width="1.51"/><path d="M3970,2566L4235,2572L4164,2259Z" fill="#dab036" stroke="#dab036" stroke-width="1.51"/><path d="M3076,2613L4235,2572L3970,2566Z" fill="#cea737" stroke="#cea737" stroke-width="1.51"/></svg>