<svg xmlns="http://www.w3.org/2000/svg" viewBox="0 0 127 88"><defs><style>.a{fill:none;stroke:#272822;stroke-miterlimit:10;stroke-width:5px;}.b{fill:#6d6d6d;}.c{opacity:0.5;}.d{fill:#ffcc31;}</style></defs><title>kind-side-overlay</title><rect class="a" x="3" y="4" width="122" height="77.13"/><polyline class="b" points="57 35 69 43 57 51"/><rect class="c" x="89" y="2" width="35" height="86.17"/><rect class="b" x="87" width="35" height="86.17"/><rect class="d" x="101" y="71" width="22" height="7.9" transform="translate(186 -42) rotate(90)"/><rect class="d" x="88" y="71" width="22" height="7.9" transform="translate(173 -29) rotate(90)"/><rect class="d" x="101" y="44" width="22" height="7.9" transform="translate(159 -70) rotate(90)"/><rect class="d" x="88" y="44" width="22" height="7.9" transform="translate(146 -57) rotate(90)"/><rect class="d" x="107" y="11" width="9" height="8.95" transform="translate(126 -101) rotate(90)"/><rect class="d" x="95" y="11" width="9" height="8.95" transform="translate(114 -90) rotate(90)"/><rect class="d" x="101" y="23" width="10" height="9.75" rx="5" ry="5" transform="translate(133 -83) rotate(90)"/></svg>