<?xml version="1.0" encoding="utf-8"?>
<!-- Generator: Adobe Illustrator 21.1.0, SVG Export Plug-In . SVG Version: 6.00 Build 0)  -->
<svg version="1.1" id="Layer_1" xmlns="http://www.w3.org/2000/svg" xmlns:xlink="http://www.w3.org/1999/xlink" x="0px" y="0px"
	 viewBox="0 0 128 79" style="enable-background:new 0 0 128 79;" xml:space="preserve">
<style type="text/css">
	.st0{fill:none;stroke:#272822;stroke-width:5;stroke-miterlimit:10;}
	.st1{fill:#FFCC31;}
	.st2{fill:#787878;stroke:#787878;stroke-miterlimit:10;}
	.st3{fill:#FFFFFF;stroke:#FFFFFF;stroke-width:0.5;stroke-miterlimit:10;}
</style>
<title>kind-over-video</title>
<rect x="7" y="3" class="st0" width="113" height="71.7"/>
<rect x="104" y="10" class="st1" width="24" height="8.5"/>
<rect x="104" y="24" class="st1" width="24" height="8.5"/>
<rect x="104" y="37" class="st1" width="24" height="8.5"/>
<rect y="8" class="st1" width="10" height="10.5"/>
<rect y="22" class="st1" width="10" height="10.5"/>
<path class="st1" d="M5,69L5,69c2.8,0,5,2.2,5,5v0.5c0,2.8-2.2,5-5,5l0,0c-2.8,0-5-2.2-5-5V74C0,71.2,2.2,69,5,69z"/>
<g>
	<polygon class="st2" points="72.8,18.4 42.8,18.4 42.8,58.4 82.8,58.4 82.8,28.4 	"/>
	<g>
		<path class="st3" d="M49.5,37.9l8.1-4.2V35l-6.8,3.4v0l6.8,3.4v1.2l-8.1-4.2V37.9z"/>
		<path class="st3" d="M59.8,44.8l4.9-12.7h1.2l-4.9,12.7H59.8z"/>
		<path class="st3" d="M76.1,38.9l-8.1,4.2v-1.2l6.9-3.4v0L67.9,35v-1.2l8.1,4.2V38.9z"/>
	</g>
</g>
</svg>
