<?xml version="1.0" encoding="utf-8"?>
<!-- Generator: Adobe Illustrator 21.1.0, SVG Export Plug-In . SVG Version: 6.00 Build 0)  -->
<svg version="1.1" id="Layer_1" xmlns="http://www.w3.org/2000/svg" xmlns:xlink="http://www.w3.org/1999/xlink" x="0px" y="0px"
	 viewBox="0 0 128 79" style="enable-background:new 0 0 128 79;" xml:space="preserve">
<style type="text/css">
	.st0{fill:none;stroke:#272822;stroke-width:5;stroke-miterlimit:10;}
	.st1{fill:#FFCC31;}
	.st2{fill:#7245D6;}
	.st3{fill:#FFFFFF;}
</style>
<title>kind-over-video</title>
<rect x="7" y="3" class="st0" width="113" height="71.7"/>
<rect x="104" y="10" class="st1" width="24" height="8.5"/>
<rect x="104" y="24" class="st1" width="24" height="8.5"/>
<rect x="104" y="37" class="st1" width="24" height="8.5"/>
<rect y="8" class="st1" width="10" height="10.5"/>
<rect y="22" class="st1" width="10" height="10.5"/>
<path class="st1" d="M5,69L5,69c2.8,0,5,2.2,5,5v0.5c0,2.8-2.2,5-5,5l0,0c-2.8,0-5-2.2-5-5V74C0,71.2,2.2,69,5,69z"/>
<g>
	<polygon class="st2" points="63.4,16.3 82.9,27.6 82.9,50.1 63.4,61.3 43.9,50.1 43.9,27.6 	"/>
	<path class="st3" d="M49.3,49.9c2.6,3.3,10.8,0.8,18.6-5.3s12.2-13.4,9.6-16.8s-10.8-0.8-18.6,5.3S46.7,46.6,49.3,49.9z M50.4,49
		c-0.9-1.1-0.5-3.3,1.2-6c1.7-2.9,4.6-6,8.2-8.8c3.6-2.8,7.4-4.9,10.5-5.9c3-0.9,5.2-0.8,6.1,0.3c0.9,1.1,0.5,3.3-1.2,6
		c-1.7,2.9-4.6,6-8.2,8.8s-7.4,4.9-10.5,5.9C53.4,50.3,51.2,50.1,50.4,49z"/>
	<path class="st3" d="M77.5,49.9c2.6-3.3-1.9-10.7-9.6-16.8s-16-8.6-18.6-5.3s1.9,10.7,9.6,16.8S74.9,53.2,77.5,49.9z M76.4,49
		c-0.9,1.1-3,1.3-6.1,0.3c-3.2-1-7-3.1-10.5-5.9c-3.6-2.8-6.5-6-8.2-8.8c-1.6-2.7-2-4.9-1.2-6c0.9-1.1,3-1.3,6.1-0.3
		c3.2,1,7,3.1,10.5,5.9c3.6,2.8,6.5,6,8.2,8.8C76.9,45.8,77.2,47.9,76.4,49z"/>
	<path class="st3" d="M63.4,41.9c1.6,0,3-1.3,3-3s-1.3-3-3-3c-1.6,0-3,1.3-3,3S61.7,41.9,63.4,41.9L63.4,41.9z"/>
</g>
</svg>
