<svg xmlns="http://www.w3.org/2000/svg" width="24" height="24" viewBox="0 0 24 24"><path d="M8.011 6.215c-1.711-.009-3.86.918-5.499 2.557-.625.625-1.176 1.355-1.601 2.174 1.479-1.119 3.057-1.47 4.903-.434.544-1.437 1.27-2.9 2.197-4.297zm9.785 9.773c-1.516.991-3.007 1.706-4.297 2.21 1.036 1.848.686 3.424-.434 4.902.819-.424 1.549-.975 2.175-1.602 1.644-1.642 2.572-3.796 2.556-5.51zm6.152-15.946c-.412-.028-.816-.042-1.213-.042-8.602 0-13.498 6.558-15.28 11.833l4.728 4.729c5.428-1.946 11.817-6.661 11.817-15.172 0-.439-.017-.888-.052-1.348zm-9.888 9.91c-.391-.391-.391-1.023 0-1.414s1.023-.391 1.414 0 .391 1.023 0 1.414-1.024.39-1.414 0zm2.828-2.828c-.781-.78-.781-2.047 0-2.828s2.048-.781 2.828 0c.781.781.781 2.047 0 2.828s-2.047.781-2.828 0zm-14.919 12.454l-.906-.906 5.208-5.188.906.906-5.208 5.188zm4.979 1.857l-.906-.906 3.636-3.664.906.906-3.636 3.664zm-6.042 2.565l-.906-.906 6.448-6.438.906.906-6.448 6.438z"/></svg>